<?xml version="1.0" encoding="UTF-8" standalone="no"?>
<!DOCTYPE svg PUBLIC "-//W3C//DTD SVG 1.1//EN"
 "http://www.w3.org/Graphics/SVG/1.1/DTD/svg11.dtd">
<!-- Generated by graphviz version 2.38.0 (20140413.2041)
 -->
<!-- Title: finite_state_machine Pages: 1 -->
<svg width="576pt" height="257pt"
 viewBox="0.00 0.00 576.00 256.98" xmlns="http://www.w3.org/2000/svg" xmlns:xlink="http://www.w3.org/1999/xlink">
<g id="graph0" class="graph" transform="scale(0.794359 0.794359) rotate(0) translate(4 319.501)">
<title>finite_state_machine</title>
<polygon fill="white" stroke="none" points="-4,4 -4,-319.501 721.113,-319.501 721.113,4 -4,4"/>
<!-- LR_0 -->
<g id="node1" class="node"><title>LR_0</title>
<ellipse fill="none" stroke="black" cx="34.2507" cy="-104.251" rx="30.0322" ry="30.0322"/>
<ellipse fill="none" stroke="black" cx="34.2507" cy="-104.251" rx="34.0033" ry="34.0033"/>
<text text-anchor="middle" x="34.2507" y="-100.051" font-family="Times,serif" font-size="14.00">LR_0</text>
</g>
<!-- LR_2 -->
<g id="node2" class="node"><title>LR_2</title>
<ellipse fill="none" stroke="black" cx="168.987" cy="-142.251" rx="30.0035" ry="30.0035"/>
<text text-anchor="middle" x="168.987" y="-138.051" font-family="Times,serif" font-size="14.00">LR_2</text>
</g>
<!-- LR_0&#45;&gt;LR_2 -->
<g id="edge1" class="edge"><title>LR_0&#45;&gt;LR_2</title>
<path fill="none" stroke="black" d="M67.3824,-113.449C86.2857,-118.861 110.292,-125.734 130.113,-131.408"/>
<polygon fill="black" stroke="black" points="129.178,-134.781 139.756,-134.169 131.105,-128.052 129.178,-134.781"/>
<text text-anchor="middle" x="103.619" y="-131.051" font-family="Times,serif" font-size="14.00">SS(B)</text>
</g>
<!-- LR_1 -->
<g id="node3" class="node"><title>LR_1</title>
<ellipse fill="none" stroke="black" cx="168.987" cy="-53.2507" rx="30.0035" ry="30.0035"/>
<text text-anchor="middle" x="168.987" y="-49.0507" font-family="Times,serif" font-size="14.00">LR_1</text>
</g>
<!-- LR_0&#45;&gt;LR_1 -->
<g id="edge2" class="edge"><title>LR_0&#45;&gt;LR_1</title>
<path fill="none" stroke="black" d="M66.3714,-92.2935C85.5999,-84.9055 110.389,-75.381 130.669,-67.5888"/>
<polygon fill="black" stroke="black" points="132.14,-70.7735 140.219,-63.9197 129.629,-64.2392 132.14,-70.7735"/>
<text text-anchor="middle" x="103.619" y="-87.0507" font-family="Times,serif" font-size="14.00">SS(S)</text>
</g>
<!-- LR_4 -->
<g id="node5" class="node"><title>LR_4</title>
<ellipse fill="none" stroke="black" cx="313.812" cy="-281.251" rx="30.0322" ry="30.0322"/>
<ellipse fill="none" stroke="black" cx="313.812" cy="-281.251" rx="34.0033" ry="34.0033"/>
<text text-anchor="middle" x="313.812" y="-277.051" font-family="Times,serif" font-size="14.00">LR_4</text>
</g>
<!-- LR_2&#45;&gt;LR_4 -->
<g id="edge5" class="edge"><title>LR_2&#45;&gt;LR_4</title>
<path fill="none" stroke="black" d="M191.369,-163.06C215.127,-186.182 253.732,-223.753 281.03,-250.32"/>
<polygon fill="black" stroke="black" points="278.801,-253.034 288.408,-257.5 283.683,-248.017 278.801,-253.034"/>
<text text-anchor="middle" x="239.399" y="-231.051" font-family="Times,serif" font-size="14.00">S(A)</text>
</g>
<!-- LR_6 -->
<g id="node7" class="node"><title>LR_6</title>
<ellipse fill="none" stroke="black" cx="313.812" cy="-166.251" rx="30.0035" ry="30.0035"/>
<text text-anchor="middle" x="313.812" y="-162.051" font-family="Times,serif" font-size="14.00">LR_6</text>
</g>
<!-- LR_2&#45;&gt;LR_6 -->
<g id="edge6" class="edge"><title>LR_2&#45;&gt;LR_6</title>
<path fill="none" stroke="black" d="M198.89,-147.108C220.475,-150.735 250.207,-155.731 273.885,-159.709"/>
<polygon fill="black" stroke="black" points="273.511,-163.196 283.952,-161.401 274.671,-156.292 273.511,-163.196"/>
<text text-anchor="middle" x="239.399" y="-160.051" font-family="Times,serif" font-size="14.00">SS(b)</text>
</g>
<!-- LR_5 -->
<g id="node8" class="node"><title>LR_5</title>
<ellipse fill="none" stroke="black" cx="437.638" cy="-104.251" rx="30.0035" ry="30.0035"/>
<text text-anchor="middle" x="437.638" y="-100.051" font-family="Times,serif" font-size="14.00">LR_5</text>
</g>
<!-- LR_2&#45;&gt;LR_5 -->
<g id="edge7" class="edge"><title>LR_2&#45;&gt;LR_5</title>
<path fill="none" stroke="black" d="M198.031,-133.154C219.972,-126.447 251.383,-117.74 279.562,-113.251 319.186,-106.938 365.055,-104.907 396.956,-104.322"/>
<polygon fill="black" stroke="black" points="397.261,-107.818 407.21,-104.175 397.16,-100.819 397.261,-107.818"/>
<text text-anchor="middle" x="313.812" y="-116.051" font-family="Times,serif" font-size="14.00">SS(a)</text>
</g>
<!-- LR_3 -->
<g id="node4" class="node"><title>LR_3</title>
<ellipse fill="none" stroke="black" cx="313.812" cy="-34.2507" rx="30.0322" ry="30.0322"/>
<ellipse fill="none" stroke="black" cx="313.812" cy="-34.2507" rx="34.0033" ry="34.0033"/>
<text text-anchor="middle" x="313.812" y="-30.0507" font-family="Times,serif" font-size="14.00">LR_3</text>
</g>
<!-- LR_1&#45;&gt;LR_3 -->
<g id="edge8" class="edge"><title>LR_1&#45;&gt;LR_3</title>
<path fill="none" stroke="black" d="M199.234,-49.36C219.475,-46.6673 246.758,-43.038 269.51,-40.0112"/>
<polygon fill="black" stroke="black" points="270.152,-43.4567 279.603,-38.6685 269.229,-36.5178 270.152,-43.4567"/>
<text text-anchor="middle" x="239.399" y="-50.0507" font-family="Times,serif" font-size="14.00">S($end)</text>
</g>
<!-- LR_8 -->
<g id="node6" class="node"><title>LR_8</title>
<ellipse fill="none" stroke="black" cx="682.862" cy="-143.251" rx="30.0322" ry="30.0322"/>
<ellipse fill="none" stroke="black" cx="682.862" cy="-143.251" rx="34.0033" ry="34.0033"/>
<text text-anchor="middle" x="682.862" y="-139.051" font-family="Times,serif" font-size="14.00">LR_8</text>
</g>
<!-- LR_8&#45;&gt;LR_6 -->
<g id="edge3" class="edge"><title>LR_8&#45;&gt;LR_6</title>
<path fill="none" stroke="black" d="M649.042,-149.71C607.193,-157.587 532.503,-170.446 467.889,-175.251 441.073,-177.245 434.245,-176.553 407.387,-175.251 389.923,-174.404 370.67,-172.663 354.266,-170.936"/>
<polygon fill="black" stroke="black" points="354.266,-167.416 343.946,-169.813 353.508,-174.375 354.266,-167.416"/>
<text text-anchor="middle" x="497.944" y="-177.051" font-family="Times,serif" font-size="14.00">S(b)</text>
</g>
<!-- LR_8&#45;&gt;LR_5 -->
<g id="edge4" class="edge"><title>LR_8&#45;&gt;LR_5</title>
<path fill="none" stroke="black" d="M648.926,-137.97C604.472,-130.842 525.381,-118.16 477.893,-110.545"/>
<polygon fill="black" stroke="black" points="478.405,-107.083 467.977,-108.955 477.296,-113.994 478.405,-107.083"/>
<text text-anchor="middle" x="558.25" y="-132.051" font-family="Times,serif" font-size="14.00">S(a)</text>
</g>
<!-- LR_6&#45;&gt;LR_6 -->
<g id="edge9" class="edge"><title>LR_6&#45;&gt;LR_6</title>
<path fill="none" stroke="black" d="M302.233,-194.501C301.718,-205.423 305.578,-214.501 313.812,-214.501 319.216,-214.501 322.736,-210.592 324.372,-204.817"/>
<polygon fill="black" stroke="black" points="327.891,-204.796 325.392,-194.501 320.925,-204.108 327.891,-204.796"/>
<text text-anchor="middle" x="313.812" y="-217.301" font-family="Times,serif" font-size="14.00">S(b)</text>
</g>
<!-- LR_6&#45;&gt;LR_5 -->
<g id="edge10" class="edge"><title>LR_6&#45;&gt;LR_5</title>
<path fill="none" stroke="black" d="M341.247,-152.798C358.807,-143.861 382.069,-132.022 401.224,-122.274"/>
<polygon fill="black" stroke="black" points="402.931,-125.333 410.255,-117.678 399.756,-119.094 402.931,-125.333"/>
<text text-anchor="middle" x="377.725" y="-142.051" font-family="Times,serif" font-size="14.00">S(a)</text>
</g>
<!-- LR_5&#45;&gt;LR_5 -->
<g id="edge11" class="edge"><title>LR_5&#45;&gt;LR_5</title>
<path fill="none" stroke="black" d="M426.806,-132.501C426.324,-143.423 429.935,-152.501 437.638,-152.501 442.693,-152.501 445.986,-148.592 447.516,-142.817"/>
<polygon fill="black" stroke="black" points="451.035,-142.78 448.471,-132.501 444.064,-142.136 451.035,-142.78"/>
<text text-anchor="middle" x="437.638" y="-155.301" font-family="Times,serif" font-size="14.00">S(a)</text>
</g>
<!-- LR_7 -->
<g id="node9" class="node"><title>LR_7</title>
<ellipse fill="none" stroke="black" cx="558.25" cy="-77.2507" rx="30.0035" ry="30.0035"/>
<text text-anchor="middle" x="558.25" y="-73.0507" font-family="Times,serif" font-size="14.00">LR_7</text>
</g>
<!-- LR_5&#45;&gt;LR_7 -->
<g id="edge12" class="edge"><title>LR_5&#45;&gt;LR_7</title>
<path fill="none" stroke="black" d="M467.351,-97.7148C482.681,-94.2252 501.766,-89.8807 518.403,-86.0935"/>
<polygon fill="black" stroke="black" points="519.417,-89.4524 528.391,-83.8201 517.863,-82.627 519.417,-89.4524"/>
<text text-anchor="middle" x="497.944" y="-96.0507" font-family="Times,serif" font-size="14.00">S(b)</text>
</g>
<!-- LR_7&#45;&gt;LR_8 -->
<g id="edge13" class="edge"><title>LR_7&#45;&gt;LR_8</title>
<path fill="none" stroke="black" d="M585.384,-91.0812C598.903,-98.2576 615.663,-107.188 630.611,-115.251 634.797,-117.509 639.169,-119.879 643.519,-122.245"/>
<polygon fill="black" stroke="black" points="641.895,-125.346 652.351,-127.058 645.245,-119.199 641.895,-125.346"/>
<text text-anchor="middle" x="618.556" y="-118.051" font-family="Times,serif" font-size="14.00">S(b)</text>
</g>
<!-- LR_7&#45;&gt;LR_5 -->
<g id="edge14" class="edge"><title>LR_7&#45;&gt;LR_5</title>
<path fill="none" stroke="black" d="M528.565,-69.89C515.313,-67.7346 499.527,-66.9596 485.889,-71.2507 480.263,-73.0207 474.724,-75.7247 469.529,-78.839"/>
<polygon fill="black" stroke="black" points="467.567,-75.9399 461.156,-84.3749 471.428,-81.7789 467.567,-75.9399"/>
<text text-anchor="middle" x="497.944" y="-74.0507" font-family="Times,serif" font-size="14.00">S(a)</text>
</g>
</g>
</svg>
